<?xml version="1.0" standalone="no"?><!-- Generator: Gravit.io --><svg xmlns="http://www.w3.org/2000/svg" xmlns:xlink="http://www.w3.org/1999/xlink" style="isolation:isolate" viewBox="0 0 480 480" width="480px" height="480px"><defs><clipPath id="_clipPath_IP5ZCYHt0A1PLl22xZHgafZY63yk1sD2"><rect width="480" height="480"/></clipPath></defs><g clip-path="url(#_clipPath_IP5ZCYHt0A1PLl22xZHgafZY63yk1sD2)"><path d=" M 184.661 156.863 C 179.96 159.437 174.903 162.583 169.712 166.482 C 161.266 172.804 152.39 181.051 144.411 191.548 C 136.423 202.02 129.358 214.738 124.53 229.315 C 122.09 236.596 120.311 244.355 119.178 252.44 L 118.76 255.489 C 118.809 254.361 118.764 255.307 118.768 255.112 L 118.752 255.339 L 118.711 255.79 L 118.638 256.691 L 118.488 258.502 L 118.188 262.132 C 118.062 263.436 118.102 264.126 118.045 265.162 C 117.826 268.82 117.851 273.222 118.041 277.457 C 118.825 294.503 123.064 312.138 130.966 328.661 C 138.827 345.183 150.323 360.536 164.583 373.059 C 178.82 385.606 195.797 395.286 213.935 401.08 C 232.033 406.936 251.325 409.019 269.703 407.524 C 288.134 406.059 305.748 400.975 321.243 393.43 C 336.767 385.902 350.163 375.994 361.041 365.279 C 371.895 354.502 380.219 342.958 386.395 332.015 C 392.514 321.027 396.518 310.684 399.161 301.975 C 400.558 297.634 401.435 293.646 402.259 290.195 C 403.007 286.646 403.372 283.84 404.367 281.396 C 405.991 276.547 406.86 273.961 406.86 273.961 C 406.86 273.961 407.217 276.665 407.887 281.733 C 408.549 284.263 407.81 287.503 407.498 291.092 C 406.966 294.727 406.417 298.933 405.37 303.562 C 403.421 312.845 400.205 324.027 394.756 336.225 C 389.241 348.37 381.465 361.506 370.733 374.22 C 359.981 386.868 346.277 399.062 329.702 408.998 C 313.167 418.943 293.721 426.532 272.606 430.113 C 251.487 433.711 228.902 433.35 206.598 428.29 C 184.318 423.292 162.569 413.429 143.578 399.493 C 124.567 385.585 108.329 367.638 96.342 347.347 C 84.312 327.081 76.601 304.484 73.514 281.899 C 72.752 276.227 72.195 270.753 71.993 264.634 C 71.944 263.221 71.835 261.471 71.847 260.342 L 72.77 256.699 L 73.704 254.88 L 73.704 253.979 L 73.704 253.524 L 73.704 253.301 L 72.788 252.472 L 72.497 248.335 C 73.034 237.327 74.279 226.534 76.714 216.216 C 81.528 195.552 89.659 176.812 99.611 160.968 C 109.559 145.087 121.099 132.098 132.497 121.832 C 143.899 111.535 155.139 104.023 164.766 98.48 C 169.614 95.752 174.032 93.482 177.955 91.642 C 179.932 90.745 181.751 89.917 183.428 89.161 C 183.713 89.046 183.994 88.932 184.271 88.82 L 184.033 47.5 L 310.67 119.66 L 184.87 193.27 L 184.661 156.863 Z " fill-rule="evenodd" fill="rgb(11,81,156)"/></g></svg>